[img]http://img16.imageshack.us/img16/7973/thedaytheearthstoodstils.jpg[/img]
 
http://www.imdb.com/title/tt0970416/

Source: The.Day.the.Earth.Stood.Still.1080p.BluRay.x264-REFiNED

Subs: Arabic, Danish, Dutch, English, Finnish, French, German, Hebrew, Indonesian, Romanian, Servian, Spanish, Swedish and Vietnamese.

Sample and Screens included.

General
Complete name                    : The Day the Earth Stood Still 2008-720p MP4 AAC BRRip-CC.mp4
Format                           : MPEG-4
Format profile                   : Base Media
Codec ID                         : isom
File size                        : 1.78 GiB
Duration                         : 1h 43mn
Overall bit rate                 : 2 453 Kbps
Encoded date                     : UTC 2011-12-19 19:22:12
Tagged date                      : UTC 2011-12-19 19:22:12
Writing application              : Yamb 2.1.0.0 

Video
ID                               : 1
Format                           : AVC
Format/Info                      : Advanced Video Codec
Format profile                   : High@L3.1
Format settings, CABAC           : Yes
Format settings, ReFrames        : 5 frames
Codec ID                         : avc1
Codec ID/Info                    : Advanced Video Coding
Duration                         : 1h 43mn
Bit rate mode                    : Variable
Bit rate                         : 2 065 Kbps
Nominal bit rate                 : 2 122 Kbps
Maximum bit rate                 : 16.4 Mbps
Width                            : 1 280 pixels
Height                           : 544 pixels
Display aspect ratio             : 2.35:1
Frame rate mode                  : Variable
Frame rate                       : 23.976 fps
Minimum frame rate               : 19.165 fps
Maximum frame rate               : 23.981 fps
Resolution                       : 8 bits
Colorimetry                      : 4:2:0
Scan type                        : Progressive
Bits/(Pixel*Frame)               : 0.124
Stream size                      : 1.49 GiB (84%)
Writing library                  : x264 core 112
Encoding settings                : cabac=1 / ref=5 / deblock=1:0:0 / analyse=0x3:0x113 / me=hex / subme=7 / psy=1 / psy_rd=1.00:0.00 / mixed_ref=1 / me_range=16 / chroma_me=1 / trellis=1 / 8x8dct=1 / cqm=0 / deadzone=21,11 / fast_pskip=1 / chroma_qp_offset=-2 / threads=3 / sliced_threads=0 / nr=0 / decimate=1 / interlaced=0 / constrained_intra=0 / bframes=5 / b_pyramid=2 / b_adapt=2 / b_bias=0 / direct=1 / weightb=1 / open_gop=0 / weightp=2 / keyint=240 / keyint_min=23 / scenecut=40 / intra_refresh=0 / rc_lookahead=50 / rc=abr / mbtree=1 / bitrate=2122 / ratetol=1.0 / qcomp=0.60 / qpmin=3 / qpmax=51 / qpstep=4 / ip_ratio=1.40 / aq=1:1.00
Encoded date                     : UTC 2011-12-19 06:40:38
Tagged date                      : UTC 2011-12-19 19:24:53
Color primaries                  : BT.709-5, BT.1361, IEC 61966-2-4, SMPTE RP177
Transfer characteristics         : BT.709-5, BT.1361
Matrix coefficients              : BT.709-5, BT.1361, IEC 61966-2-4 709, SMPTE RP177

Audio
ID                               : 2
Format                           : AAC
Format/Info                      : Advanced Audio Codec
Format version                   : Version 4
Format profile                   : LC
Format settings, SBR             : No
Codec ID                         : 40
Duration                         : 1h 43mn
Bit rate mode                    : Variable
Bit rate                         : 384 Kbps
Maximum bit rate                 : 713 Kbps
Channel(s)                       : 6 channels
Channel positions                : Front: L C R, Rear: L R, LFE
Sampling rate                    : 48.0 KHz
Stream size                      : 284 MiB (16%)
Language                         : English
Encoded date                     : UTC 2011-12-19 19:23:53
Tagged date                      : UTC 2011-12-19 19:24:53

Enjoy... 

[img]http://img820.imageshack.us/img820/1967/thedaytheearthstoodstil.png[/img]

[img]http://img851.imageshack.us/img851/7326/thedaytheearthstoodstilq.png[/img]

[img]http://img215.imageshack.us/img215/4747/thedaytheearthstoodstilw.png[/img]

[img]http://img815.imageshack.us/img815/1967/thedaytheearthstoodstil.png[/img]

[img]http://img163.imageshack.us/img163/1967/thedaytheearthstoodstil.png[/img]